<svg width="16" height="19" viewBox="0 0 16 19" fill="none" xmlns="http://www.w3.org/2000/svg">
<path d="M6.64455 0C5.28901 0 4.20001 1.12638 4.20001 2.48815V2.79069H1.45224C1.07078 2.79069 0.759935 3.10154 0.759935 3.483V4.17531H0.067627V5.55992H1.45224V15.9445C1.45224 17.0834 2.39032 18.0215 3.52917 18.0215H11.8369C12.9757 18.0215 13.9138 17.0834 13.9138 15.9445V5.55992H15.2984V4.17531H14.6061V3.483C14.6061 3.10154 14.2952 2.79069 13.9138 2.79069H11.166V2.48746C11.166 1.12638 10.077 0 8.72147 0H6.64455ZM6.64455 1.42754H8.72147C9.27809 1.42754 9.73847 1.88169 9.73847 2.48746V2.79069H5.62686V2.48746C5.62686 1.88169 6.08724 1.42823 6.64386 1.42823L6.64455 1.42754ZM2.83686 5.55992H6.38493C6.47078 5.56892 6.55593 5.58139 6.64455 5.58139H8.72147C8.81009 5.58139 8.89455 5.56892 8.98109 5.55992H12.5292V15.9445C12.5292 16.3343 12.2266 16.6368 11.8369 16.6368H3.52917C3.1394 16.6368 2.83686 16.3343 2.83686 15.9445V5.55992ZM4.22147 6.94454V15.2522H5.60609V6.94454H4.22147ZM6.9907 6.94454V15.2522H8.37532V6.94454H6.9907ZM9.75994 6.94454V15.2522H11.1446V6.94454H9.75994Z" fill="black"/>
</svg>
