<svg width="24" height="25" viewBox="0 0 24 25" fill="none" xmlns="http://www.w3.org/2000/svg">
<path d="M12 0.5C5.38327 0.5 0 5.88327 0 12.5C0 19.1167 5.38327 24.5 12 24.5C18.6167 24.5 24 19.1167 24 12.5C24 5.88327 18.6167 0.5 12 0.5ZM18.9231 11.0087C18.9231 11.1405 18.8707 11.267 18.7774 11.3603C18.6842 11.4536 18.5577 11.506 18.4258 11.506H14.9908C14.8924 11.5061 14.7962 11.477 14.7143 11.4224C14.6325 11.3678 14.5687 11.2902 14.531 11.1992C14.4934 11.1083 14.4836 11.0083 14.5029 10.9118C14.5222 10.8153 14.5697 10.7267 14.6394 10.6573L15.9185 9.37827L15.5954 9.00269C15.0175 8.40276 14.2999 7.95537 13.5069 7.70054C12.7138 7.44571 11.87 7.39137 11.0508 7.54237C10.2316 7.69338 9.46259 8.04504 8.81252 8.5659C8.16245 9.08675 7.65159 9.76058 7.32559 10.5271C6.9996 11.2937 6.86864 12.1291 6.94442 12.9586C7.02021 13.7882 7.30037 14.586 7.75987 15.2808C8.21936 15.9756 8.84387 16.5457 9.57756 16.9401C10.3112 17.3346 11.1312 17.5411 11.9642 17.5412C13.0067 17.5402 14.0234 17.2167 14.8747 16.615C15.726 16.0133 16.3703 15.163 16.7192 14.1806C16.7596 14.0662 16.8222 13.9609 16.9033 13.8706C16.9845 13.7804 17.0826 13.707 17.192 13.6547C17.3015 13.6024 17.4202 13.5722 17.5414 13.5657C17.6625 13.5593 17.7838 13.5768 17.8982 13.6172C18.0126 13.6576 18.1179 13.7202 18.2081 13.8013C18.2983 13.8824 18.3717 13.9805 18.424 14.09C18.4763 14.1995 18.5066 14.3182 18.513 14.4393C18.5194 14.5605 18.502 14.6818 18.4615 14.7962C18.0408 15.9868 17.3009 17.0389 16.3226 17.8375C15.3443 18.6361 14.1653 19.1503 12.9145 19.3241C11.6637 19.4979 10.3892 19.3244 9.23026 18.8228C8.07135 18.3212 7.07263 17.5106 6.34327 16.4797C5.6139 15.4488 5.18196 14.2372 5.09465 12.9774C5.00734 11.7176 5.26802 10.4581 5.8482 9.33639C6.42838 8.21473 7.30573 7.27414 8.38436 6.61742C9.463 5.9607 10.7014 5.61313 11.9642 5.61269C12.8962 5.60913 13.8191 5.79643 14.676 6.16305C15.5328 6.52967 16.3055 7.06784 16.9465 7.74442L16.9788 7.78019L17.2275 8.06865L18.0744 7.22173C18.1195 7.17559 18.1734 7.13887 18.2328 7.11371C18.2922 7.08856 18.356 7.07546 18.4206 7.07519C18.4862 7.07466 18.5514 7.08715 18.6122 7.11195C18.673 7.13674 18.7283 7.17335 18.7748 7.21965C18.8214 7.26595 18.8583 7.32103 18.8835 7.38169C18.9086 7.44236 18.9215 7.50741 18.9213 7.57308L18.9231 11.0087Z" fill="#36488A"/>
</svg>
